<mxfile host="www.draw.io" modified="2020-05-14T03:33:49.990Z" agent="5.0 (Windows NT 10.0; Win64; x64) AppleWebKit/537.36 (KHTML, like Gecko) Chrome/81.0.4044.138 Safari/537.36" etag="96TUX8dm1JetZ_phwIZq" version="12.9.9" type="github">
  <diagram id="bKfpo3g62JLMTrmlGt0G" name="Page-1">
    <mxGraphModel dx="1348" dy="753" grid="1" gridSize="10" guides="1" tooltips="1" connect="1" arrows="1" fold="1" page="1" pageScale="1" pageWidth="827" pageHeight="1169" math="0" shadow="0">
      <root>
        <mxCell id="0" />
        <mxCell id="1" parent="0" />
        <mxCell id="XN54JSFrq8L8oCS_O7Hx-1" value="" style="endArrow=classic;html=1;strokeWidth=2;fillColor=#dae8fc;strokeColor=#6c8ebf;" edge="1" parent="1">
          <mxGeometry width="50" height="50" relative="1" as="geometry">
            <mxPoint x="110" y="390" as="sourcePoint" />
            <mxPoint x="650" y="390" as="targetPoint" />
          </mxGeometry>
        </mxCell>
        <mxCell id="XN54JSFrq8L8oCS_O7Hx-2" value="" style="endArrow=classic;html=1;strokeWidth=2;fillColor=#dae8fc;strokeColor=#6c8ebf;" edge="1" parent="1">
          <mxGeometry width="50" height="50" relative="1" as="geometry">
            <mxPoint x="120" y="400" as="sourcePoint" />
            <mxPoint x="120" y="240" as="targetPoint" />
          </mxGeometry>
        </mxCell>
        <mxCell id="XN54JSFrq8L8oCS_O7Hx-3" value="" style="curved=1;endArrow=none;html=1;endFill=0;strokeWidth=2;fillColor=#dae8fc;strokeColor=#6c8ebf;" edge="1" parent="1">
          <mxGeometry width="50" height="50" relative="1" as="geometry">
            <mxPoint x="120" y="390" as="sourcePoint" />
            <mxPoint x="610" y="390" as="targetPoint" />
            <Array as="points">
              <mxPoint x="250" y="340" />
              <mxPoint x="370" y="250" />
              <mxPoint x="480" y="340" />
            </Array>
          </mxGeometry>
        </mxCell>
        <mxCell id="XN54JSFrq8L8oCS_O7Hx-4" value="" style="endArrow=none;dashed=1;html=1;strokeWidth=2;fillColor=#dae8fc;strokeColor=#6c8ebf;" edge="1" parent="1">
          <mxGeometry width="50" height="50" relative="1" as="geometry">
            <mxPoint x="120" y="310" as="sourcePoint" />
            <mxPoint x="620" y="310" as="targetPoint" />
          </mxGeometry>
        </mxCell>
        <mxCell id="XN54JSFrq8L8oCS_O7Hx-6" value="100" style="text;html=1;align=center;verticalAlign=middle;resizable=0;points=[];autosize=1;fillColor=#dae8fc;strokeColor=#6c8ebf;" vertex="1" parent="1">
          <mxGeometry x="70" y="300" width="40" height="20" as="geometry" />
        </mxCell>
        <mxCell id="XN54JSFrq8L8oCS_O7Hx-7" value="" style="endArrow=classic;html=1;strokeWidth=2;fillColor=#dae8fc;strokeColor=#6c8ebf;" edge="1" parent="1">
          <mxGeometry width="50" height="50" relative="1" as="geometry">
            <mxPoint x="110" y="620" as="sourcePoint" />
            <mxPoint x="650" y="620" as="targetPoint" />
          </mxGeometry>
        </mxCell>
        <mxCell id="XN54JSFrq8L8oCS_O7Hx-8" value="" style="endArrow=classic;html=1;strokeWidth=2;fillColor=#dae8fc;strokeColor=#6c8ebf;" edge="1" parent="1">
          <mxGeometry width="50" height="50" relative="1" as="geometry">
            <mxPoint x="120" y="630" as="sourcePoint" />
            <mxPoint x="120" y="470" as="targetPoint" />
          </mxGeometry>
        </mxCell>
        <mxCell id="XN54JSFrq8L8oCS_O7Hx-9" value="" style="curved=1;endArrow=none;html=1;endFill=0;strokeWidth=2;fillColor=#dae8fc;strokeColor=#6c8ebf;" edge="1" parent="1">
          <mxGeometry width="50" height="50" relative="1" as="geometry">
            <mxPoint x="120" y="620" as="sourcePoint" />
            <mxPoint x="260" y="620" as="targetPoint" />
            <Array as="points">
              <mxPoint x="220" y="580" />
              <mxPoint x="260" y="520" />
              <mxPoint x="260" y="600" />
            </Array>
          </mxGeometry>
        </mxCell>
        <mxCell id="XN54JSFrq8L8oCS_O7Hx-10" value="" style="endArrow=none;dashed=1;html=1;strokeWidth=2;fillColor=#dae8fc;strokeColor=#6c8ebf;" edge="1" parent="1">
          <mxGeometry width="50" height="50" relative="1" as="geometry">
            <mxPoint x="120" y="540" as="sourcePoint" />
            <mxPoint x="620" y="540" as="targetPoint" />
          </mxGeometry>
        </mxCell>
        <mxCell id="XN54JSFrq8L8oCS_O7Hx-11" value="100" style="text;html=1;align=center;verticalAlign=middle;resizable=0;points=[];autosize=1;fillColor=#dae8fc;strokeColor=#6c8ebf;" vertex="1" parent="1">
          <mxGeometry x="70" y="530" width="40" height="20" as="geometry" />
        </mxCell>
        <mxCell id="XN54JSFrq8L8oCS_O7Hx-12" value="" style="curved=1;endArrow=none;html=1;endFill=0;strokeWidth=2;fillColor=#dae8fc;strokeColor=#6c8ebf;" edge="1" parent="1">
          <mxGeometry width="50" height="50" relative="1" as="geometry">
            <mxPoint x="260" y="620" as="sourcePoint" />
            <mxPoint x="400" y="620" as="targetPoint" />
            <Array as="points">
              <mxPoint x="360" y="580" />
              <mxPoint x="400" y="520" />
              <mxPoint x="400" y="600" />
            </Array>
          </mxGeometry>
        </mxCell>
        <mxCell id="XN54JSFrq8L8oCS_O7Hx-13" value="" style="curved=1;endArrow=none;html=1;endFill=0;strokeWidth=2;fillColor=#dae8fc;strokeColor=#6c8ebf;" edge="1" parent="1">
          <mxGeometry width="50" height="50" relative="1" as="geometry">
            <mxPoint x="400" y="620" as="sourcePoint" />
            <mxPoint x="540" y="620" as="targetPoint" />
            <Array as="points">
              <mxPoint x="500" y="580" />
              <mxPoint x="540" y="520" />
              <mxPoint x="540" y="600" />
            </Array>
          </mxGeometry>
        </mxCell>
        <mxCell id="XN54JSFrq8L8oCS_O7Hx-16" value="持续告警" style="whiteSpace=wrap;html=1;rounded=1;arcSize=50;align=center;verticalAlign=middle;strokeWidth=1;autosize=1;spacing=4;treeFolding=1;treeMoving=1;newEdgeStyle={&quot;edgeStyle&quot;:&quot;entityRelationEdgeStyle&quot;,&quot;startArrow&quot;:&quot;none&quot;,&quot;endArrow&quot;:&quot;none&quot;,&quot;segment&quot;:10,&quot;curved&quot;:1};fillColor=#dae8fc;strokeColor=#6c8ebf;" vertex="1" parent="1">
          <mxGeometry x="414" y="210" width="90" height="30" as="geometry" />
        </mxCell>
        <mxCell id="XN54JSFrq8L8oCS_O7Hx-17" value="" style="edgeStyle=entityRelationEdgeStyle;startArrow=none;endArrow=none;segment=10;curved=1;strokeWidth=2;fillColor=#dae8fc;strokeColor=#6c8ebf;" edge="1" target="XN54JSFrq8L8oCS_O7Hx-16" parent="1">
          <mxGeometry relative="1" as="geometry">
            <mxPoint x="360" y="290" as="sourcePoint" />
          </mxGeometry>
        </mxCell>
        <mxCell id="XN54JSFrq8L8oCS_O7Hx-19" value="" style="endArrow=none;dashed=1;html=1;strokeWidth=2;fillColor=#dae8fc;strokeColor=#6c8ebf;" edge="1" parent="1">
          <mxGeometry width="50" height="50" relative="1" as="geometry">
            <mxPoint x="290" y="290" as="sourcePoint" />
            <mxPoint x="290" y="330" as="targetPoint" />
          </mxGeometry>
        </mxCell>
        <mxCell id="XN54JSFrq8L8oCS_O7Hx-22" value="" style="endArrow=none;dashed=1;html=1;strokeWidth=2;fillColor=#dae8fc;strokeColor=#6c8ebf;" edge="1" parent="1">
          <mxGeometry width="50" height="50" relative="1" as="geometry">
            <mxPoint x="440" y="290" as="sourcePoint" />
            <mxPoint x="440" y="330" as="targetPoint" />
          </mxGeometry>
        </mxCell>
        <mxCell id="XN54JSFrq8L8oCS_O7Hx-24" value="单次告警" style="whiteSpace=wrap;html=1;rounded=1;arcSize=50;align=center;verticalAlign=middle;strokeWidth=1;autosize=1;spacing=4;treeFolding=1;treeMoving=1;newEdgeStyle={&quot;edgeStyle&quot;:&quot;entityRelationEdgeStyle&quot;,&quot;startArrow&quot;:&quot;none&quot;,&quot;endArrow&quot;:&quot;none&quot;,&quot;segment&quot;:10,&quot;curved&quot;:1};fillColor=#dae8fc;strokeColor=#6c8ebf;" vertex="1" parent="1">
          <mxGeometry x="281" y="496" width="90" height="30" as="geometry" />
        </mxCell>
        <mxCell id="XN54JSFrq8L8oCS_O7Hx-25" value="" style="edgeStyle=entityRelationEdgeStyle;startArrow=none;endArrow=none;segment=10;curved=1;strokeWidth=2;fillColor=#dae8fc;strokeColor=#6c8ebf;" edge="1" target="XN54JSFrq8L8oCS_O7Hx-24" parent="1">
          <mxGeometry relative="1" as="geometry">
            <mxPoint x="260" y="540" as="sourcePoint" />
          </mxGeometry>
        </mxCell>
        <mxCell id="XN54JSFrq8L8oCS_O7Hx-27" value="单次告警" style="whiteSpace=wrap;html=1;rounded=1;arcSize=50;align=center;verticalAlign=middle;strokeWidth=1;autosize=1;spacing=4;treeFolding=1;treeMoving=1;newEdgeStyle={&quot;edgeStyle&quot;:&quot;entityRelationEdgeStyle&quot;,&quot;startArrow&quot;:&quot;none&quot;,&quot;endArrow&quot;:&quot;none&quot;,&quot;segment&quot;:10,&quot;curved&quot;:1};fillColor=#dae8fc;strokeColor=#6c8ebf;" vertex="1" parent="1">
          <mxGeometry x="423" y="496" width="90" height="30" as="geometry" />
        </mxCell>
        <mxCell id="XN54JSFrq8L8oCS_O7Hx-28" value="" style="edgeStyle=entityRelationEdgeStyle;startArrow=none;endArrow=none;segment=10;curved=1;strokeWidth=2;fillColor=#dae8fc;strokeColor=#6c8ebf;" edge="1" target="XN54JSFrq8L8oCS_O7Hx-27" parent="1">
          <mxGeometry relative="1" as="geometry">
            <mxPoint x="392" y="538" as="sourcePoint" />
          </mxGeometry>
        </mxCell>
        <mxCell id="XN54JSFrq8L8oCS_O7Hx-29" value="" style="shape=singleArrow;direction=south;whiteSpace=wrap;html=1;fillColor=#dae8fc;strokeColor=#6c8ebf;arrowWidth=0.22;arrowSize=0.6304347826086957;strokeWidth=2;" vertex="1" parent="1">
          <mxGeometry x="310" y="420" width="100" height="46" as="geometry" />
        </mxCell>
      </root>
    </mxGraphModel>
  </diagram>
</mxfile>
